<?xml version="1.0" encoding="UTF-8" standalone="no"?><svg xmlns="http://www.w3.org/2000/svg" height="240" width="240" version="1.1"> <path d="M0,0h240v240h-240z" style="fill:#fff"/> <path style="fill:#000" d="m114.47,61.469c-1.1533,0.04714-2.2298,0.21086-3.1875,0.46875-6.74,1.815-11.322,8.333-12.811,18.312-0.509,3.407-1.158,4.75-2.313,4.75-0.885,0-18.421-2.056-38.968-4.562-20.548-2.507-38.724-4.419-40.407-4.25-2.0505,0.20589-3.3146,1.0262-3.8438,2.4688-1.7984,4.9027-0.92612,5.112,41.594,10.375,21.99,2.721,40.531,4.964,41.219,4.968,0.86319,0.0055,1.2644,1.934,1.2812,6.25,0.04638,11.859,3.1547,19.675,9.3125,23.312,1.6551,0.9777,5.851,1.9329,9.5625,2.1875,5.7412,0.39383,7.0632,0.12927,10.094-1.9375,4.1788-2.8499,7.7153-8.8138,8.5625-14.406,0.34032-2.2465,0.90854-4.5532,1.2812-5.1562,1.0525-1.703,40.677,2.2262,48.469,4.8125,27.115,8.9997,33.363,35.097,11.031,46.094-6.5582,3.2294-7.1971,3.3478-18.812,3.3438-6.6125-0.002-19.99-0.41065-29.719-0.90625-15.977-0.81386-17.945-0.73877-20.312,0.8125-1.9463,1.2752-2.543,2.4109-2.3125,4.4062,0.2872,2.4867,0.76062,2.7291,6.3125,3.4062,3.3,0.40247,11.85,1.1204,19,1.5938,8.1124,0.53705,15.122,0.86436,21.062,0.96875,0.0264,0.005,0.066-0.004,0.0937,0,0.82792,0.13096,2.206,0.19499,3.75,0.1875,1.7642-0.009,3.5084-0.0751,5.2188-0.21875,5.1637-0.15623,9.0905-0.57356,11.688-1.25,11.494-2.9939,19.872-9.1216,24.5-17.938,2.2759-4.3352,2.6652-6.2851,2.6562-13.562-0.0127-10.195-2.1001-15.258-9.7188-23.594-8.08-8.84-25.9-16.281-39.24-16.39-2.2-0.01797-4.4879-0.34592-5.0938-0.75-0.60582-0.40408-1.3764-4.2166-1.6875-8.4375-0.97801-13.268-5.448-18.964-16.562-21.031-5.1138-0.95101-6.7212-0.85489-10.25,0.53125-4.0982,1.6098-4.2343,1.5722-7.0312-0.78125-3.0996-2.6081-9.4088-4.2668-14.406-4.0625zm0.3125,8.8125c0.78877-0.05505,1.6559,0.0066,2.5938,0.15625,6.5268,1.0417,8.3131,2.7801,9.6562,9.25,2.0925,10.079-0.37746,31.165-4.125,35.188-1.4571,1.564-3.19,2.125-6.5,2.125-8.8744,0-11.19-5.7261-10.094-24.938,0.89377-15.665,2.9474-21.396,8.4688-21.781zm27.562,3.8438c0.98117-0.0013,2.046,0.10421,3.1562,0.3125,6.1213,1.1484,8.5,5.3839,8.5,15.188v4.375l-5.25-0.15625c-11.926-0.36354-11.41-0.01638-12.156-8.25-0.36346-4.0109-0.35092-8.023,0-8.9375,0.61446-1.6013,2.8065-2.5274,5.75-2.5312z"/></svg>
